<?xml version="1.0" encoding="iso-8859-1"?>
<svg version="1.1" xmlns="http://www.w3.org/2000/svg" xmlns:xlink="http://www.w3.org/1999/xlink" viewBox="111.86651611328125 0.25 351.77 475.75" height="475.75" width="351.77">
	<path style="transform: rotate(180deg);transform-origin: 237.751516113px 238.125px;" d="M360,229l-225-225c-5-5-13-5-19,0s-5,13,0,19l215,215l-215,215c-5,5-5,13,0,19c2,2,6,4,9,4c3,0,6-1,9-4l225-225C365,242,365,234,360,229z"/>
	<path style="transform: rotate(180deg) translate(-100px, 0);transform-origin: 237.751516113px 238.125px;" d="M360,229l-225-225c-5-5-13-5-19,0s-5,13,0,19l215,215l-215,215c-5,5-5,13,0,19c2,2,6,4,9,4c3,0,6-1,9-4l225-225C365,242,365,234,360,229z"/>
</svg>